<svg width="106" height="32" viewBox="0 0 106 32" fill="none" xmlns="http://www.w3.org/2000/svg">
<path d="M1.51705 25V7.54545H13.0739V10.5881H5.20739V14.7472H12.3068V17.7898H5.20739V25H1.51705ZM16.3849 25H12.4304L18.456 7.54545H23.2116L29.2287 25H25.2741L20.902 11.5341H20.7656L16.3849 25ZM16.1378 18.1392H25.4787V21.0199H16.1378V18.1392ZM40.3999 12.5653C40.3317 11.8778 40.0391 11.3437 39.522 10.9631C39.005 10.5824 38.3033 10.392 37.4169 10.392C36.8146 10.392 36.3061 10.4773 35.8913 10.6477C35.4766 10.8125 35.1584 11.0426 34.9368 11.3381C34.7209 11.6335 34.6129 11.9688 34.6129 12.3438C34.6016 12.6562 34.6669 12.929 34.8089 13.1619C34.9567 13.3949 35.1584 13.5966 35.4141 13.767C35.6697 13.9318 35.9652 14.0767 36.3004 14.2017C36.6357 14.321 36.9936 14.4233 37.3743 14.5085L38.9425 14.8835C39.7038 15.054 40.4027 15.2812 41.0391 15.5653C41.6754 15.8494 42.2266 16.1989 42.6925 16.6136C43.1584 17.0284 43.5192 17.517 43.7749 18.0795C44.0362 18.642 44.1697 19.2869 44.1754 20.0142C44.1697 21.0824 43.897 22.0085 43.3572 22.7926C42.8232 23.571 42.0504 24.1761 41.0391 24.608C40.0334 25.0341 38.8203 25.2472 37.3999 25.2472C35.9908 25.2472 34.7635 25.0312 33.718 24.5994C32.6783 24.1676 31.8658 23.5284 31.2805 22.6818C30.701 21.8295 30.397 20.7756 30.3686 19.5199H33.9396C33.9794 20.1051 34.147 20.5937 34.4425 20.9858C34.7436 21.3722 35.1442 21.6648 35.6442 21.8636C36.1499 22.0568 36.7209 22.1534 37.3572 22.1534C37.9822 22.1534 38.5249 22.0625 38.9851 21.8807C39.451 21.6989 39.8118 21.446 40.0675 21.1222C40.3232 20.7983 40.451 20.4261 40.451 20.0057C40.451 19.6136 40.3345 19.2841 40.1016 19.017C39.8743 18.75 39.5391 18.5227 39.0959 18.3352C38.6584 18.1477 38.1214 17.9773 37.4851 17.8239L35.5845 17.3466C34.1129 16.9886 32.951 16.429 32.0987 15.6676C31.2464 14.9062 30.8232 13.8807 30.8288 12.5909C30.8232 11.5341 31.1044 10.6108 31.6726 9.82102C32.2464 9.03125 33.0334 8.41477 34.0334 7.97159C35.0334 7.52841 36.1697 7.30682 37.4425 7.30682C38.7379 7.30682 39.8686 7.52841 40.8345 7.97159C41.8061 8.41477 42.5618 9.03125 43.1016 9.82102C43.6413 10.6108 43.9197 11.5256 43.9368 12.5653H40.3999ZM46.6577 25V7.54545H50.348V14.7472H57.8395V7.54545H61.5213V25H57.8395V17.7898H50.348V25H46.6577ZM68.2543 7.54545V25H64.5639V7.54545H68.2543ZM87.3303 16.2727C87.3303 18.1761 86.9695 19.7955 86.2479 21.1307C85.532 22.4659 84.5547 23.4858 83.3161 24.1903C82.0831 24.8892 80.6967 25.2386 79.157 25.2386C77.6058 25.2386 76.2138 24.8864 74.9808 24.1818C73.7479 23.4773 72.7734 22.4574 72.0575 21.1222C71.3416 19.7869 70.9837 18.1705 70.9837 16.2727C70.9837 14.3693 71.3416 12.75 72.0575 11.4148C72.7734 10.0795 73.7479 9.0625 74.9808 8.36364C76.2138 7.65909 77.6058 7.30682 79.157 7.30682C80.6967 7.30682 82.0831 7.65909 83.3161 8.36364C84.5547 9.0625 85.532 10.0795 86.2479 11.4148C86.9695 12.75 87.3303 14.3693 87.3303 16.2727ZM83.5888 16.2727C83.5888 15.0398 83.4041 14 83.0348 13.1534C82.6712 12.3068 82.157 11.6648 81.4922 11.2273C80.8274 10.7898 80.049 10.571 79.157 10.571C78.2649 10.571 77.4865 10.7898 76.8217 11.2273C76.157 11.6648 75.6399 12.3068 75.2706 13.1534C74.907 14 74.7251 15.0398 74.7251 16.2727C74.7251 17.5057 74.907 18.5455 75.2706 19.392C75.6399 20.2386 76.157 20.8807 76.8217 21.3182C77.4865 21.7557 78.2649 21.9744 79.157 21.9744C80.049 21.9744 80.8274 21.7557 81.4922 21.3182C82.157 20.8807 82.6712 20.2386 83.0348 19.392C83.4041 18.5455 83.5888 17.5057 83.5888 16.2727ZM104.663 7.54545V25H101.476L93.8821 14.0142H93.7543V25H90.0639V7.54545H93.3026L100.837 18.5227H100.99V7.54545H104.663Z" fill="#0A0A0A"/>
</svg>
